<svg xmlns="http://www.w3.org/2000/svg" viewBox="0 0 64 64" fill="none">
  <defs>
    <linearGradient id="bg" x1="0" y1="0" x2="1" y2="1">
      <stop offset="0%" stop-color="#6366f1"/>
      <stop offset="100%" stop-color="#ec4899"/>
    </linearGradient>
  </defs>
  <rect width="64" height="64" rx="14" fill="url(#bg)"/>
  <circle cx="32" cy="22" r="8" fill="white" fill-opacity="0.95"/>
  <path d="M18 46 Q18 36 32 36 Q46 36 46 46 L46 52 Q32 56 18 52 Z" fill="white" fill-opacity="0.95"/>
  <path d="M16 30 Q8 28 7 22 Q6 17 12 17 Q17 17 18 23 L19 28 Z" fill="white" fill-opacity="0.85"/>
  <path d="M48 30 Q56 28 57 22 Q58 17 52 17 Q47 17 46 23 L45 28 Z" fill="white" fill-opacity="0.85"/>
  <path d="M17 26 Q10 20 14 13" stroke="#6ee7b7" stroke-width="2.5" stroke-linecap="round" fill="none"/>
  <circle cx="17" cy="27" r="2.5" fill="#6ee7b7"/>
  <path d="M47 26 Q54 20 50 13" stroke="#a5f3fc" stroke-width="2.5" stroke-linecap="round" fill="none"/>
  <circle cx="47" cy="27" r="2.5" fill="#a5f3fc"/>
</svg>
